<?xml version="1.0" encoding="utf-8"?>
<!-- Generator: Adobe Illustrator 15.0.2, SVG Export Plug-In . SVG Version: 6.00 Build 0)  -->
<!DOCTYPE svg PUBLIC "-//W3C//DTD SVG 1.1//EN" "http://www.w3.org/Graphics/SVG/1.1/DTD/svg11.dtd">
<svg version="1.1" id="Calque_1" xmlns="http://www.w3.org/2000/svg" xmlns:xlink="http://www.w3.org/1999/xlink" x="0px" y="0px"
	 width="24px" height="24px" viewBox="28 0 24 24" enable-background="new 28 0 24 24" xml:space="preserve">
<g>
	<path fill="#2D2D2D" d="M37.195,13.999c-0.693,0-1.345-0.271-1.833-0.758l-2.603-2.604c-1.011-1.011-1.011-2.653,0-3.666
		l2.198-2.196c0.487-0.489,1.139-0.758,1.832-0.758c0.694,0,1.346,0.27,1.834,0.758l2.603,2.603c1.012,1.013,1.012,2.656,0,3.667
		l-2.196,2.198C38.541,13.729,37.89,13.999,37.195,13.999z M36.789,6.077c-0.083,0-0.241,0.022-0.375,0.155l-2.197,2.195
		c-0.205,0.203-0.205,0.549,0,0.754l2.602,2.601c0.134,0.135,0.295,0.154,0.376,0.154c0.082,0,0.243-0.021,0.377-0.154l2.197-2.196
		c0.204-0.205,0.204-0.55,0-0.752l-2.603-2.603C37.033,6.1,36.873,6.077,36.789,6.077z"/>
	<path fill="#2D2D2D" d="M43.212,19.982c-0.695,0-1.346-0.269-1.834-0.758l-2.603-2.604c-1.011-1.012-1.011-2.654,0-3.666
		l2.198-2.197c0.488-0.486,1.14-0.757,1.833-0.757c0.694,0,1.346,0.271,1.833,0.757l2.604,2.604c1.01,1.012,1.01,2.654,0,3.666
		l-2.198,2.197C44.556,19.715,43.905,19.982,43.212,19.982z M42.805,12.063c-0.082,0-0.242,0.019-0.375,0.154l-2.198,2.196
		c-0.205,0.204-0.205,0.55,0,0.754l2.603,2.601c0.134,0.137,0.292,0.155,0.378,0.155c0.082,0,0.241-0.021,0.375-0.155l2.197-2.192
		c0.205-0.208,0.205-0.554,0-0.757l-2.604-2.603C43.048,12.081,42.886,12.063,42.805,12.063z"/>
	<g>
		<path fill="#2D2D2D" d="M42.393,14.663c-0.338,0.34-0.89,0.34-1.228,0l-3.692-3.695c-0.338-0.337-0.338-0.891,0-1.228l0.262-0.263
			c0.337-0.337,0.891-0.337,1.228,0l3.693,3.691c0.338,0.339,0.338,0.892,0,1.229L42.393,14.663z"/>
	</g>
</g>
</svg>
