<?xml version="1.0" encoding="utf-8"?>
<!-- Generator: Adobe Illustrator 15.0.2, SVG Export Plug-In . SVG Version: 6.00 Build 0)  -->
<!DOCTYPE svg PUBLIC "-//W3C//DTD SVG 1.1//EN" "http://www.w3.org/Graphics/SVG/1.1/DTD/svg11.dtd">
<svg version="1.1" id="Calque_1" xmlns="http://www.w3.org/2000/svg" xmlns:xlink="http://www.w3.org/1999/xlink" x="0px" y="0px"
	 width="175px" height="34px" viewBox="-35 0 175 34" enable-background="new -35 0 175 34" xml:space="preserve">
<rect x="1" opacity="0.3" fill="#D31147" enable-background="new    " width="33" height="34"/>
<rect x="36" fill="#F01B57" width="33" height="34"/>
<rect x="71" fill="#F01B57" width="33" height="34"/>
<g>
	<path fill="#2E2E2D" d="M17.788,9.014C17.701,9.005,17.615,9,17.527,9c-0.004,0-0.008,0.001-0.014,0.001
		C17.51,9.001,17.504,9,17.5,9c-2.238,0-4.051,2.255-4.051,4.676c0,1.037,0.332,1.745,0.887,2.219
		c0.583,1.565,1.793,2.645,3.191,2.645c1.418,0,2.644-1.111,3.217-2.717c0.508-0.473,0.809-1.162,0.809-2.146
		C21.553,11.361,19.891,9.197,17.788,9.014z M20.244,15.285l-0.129,0.121l-0.061,0.168c-0.484,1.354-1.478,2.229-2.525,2.229
		c-1.045,0-2.003-0.83-2.502-2.166l-0.065-0.18l-0.146-0.124c-0.424-0.36-0.63-0.901-0.63-1.657c0-0.309,0.034-0.609,0.098-0.904
		c0.043-0.135,0.111-0.306,0.601,0.511c0.432,0.718,0.111-1.25,0.735-1.25c0.625,0,1.065,0.706,1.883,0.706s1.258-0.706,1.882-0.706
		c0.625,0,0.332,1.985,0.736,1.25c0.596-1.083,0.57-0.505,0.602-0.509c0.064,0.293,0.098,0.597,0.098,0.902
		C20.818,14.4,20.631,14.926,20.244,15.285z"/>
	<path fill="#2E2E2D" d="M24.113,24.082c-0.955-4.834-3.291-6.23-3.564-6.23c-0.275,0-0.074-0.09-0.953,0.72
		c-0.885,0.807-2.096,0.75-2.096,0.75s-1.209,0.057-2.092-0.752c-0.882-0.812-0.68-0.718-0.957-0.718
		c-0.275,0-2.609,1.396-3.565,6.229c0,0-0.203,0.915,0.351,0.915C11.788,25,17.5,25,17.5,25s5.711,0,6.264,0
		C24.317,25,24.113,24.082,24.113,24.082z"/>
</g>
<rect x="-34" opacity="0.3" fill="#D31147" enable-background="new    " width="33" height="34"/>
<g>
	<path fill="#2E2E2D" d="M-17.212,9.014C-17.299,9.005-17.385,9-17.473,9c-0.004,0-0.008,0.001-0.014,0.001
		C-17.49,9.001-17.496,9-17.5,9c-2.238,0-4.051,2.255-4.051,4.676c0,1.037,0.332,1.745,0.887,2.219
		c0.583,1.565,1.793,2.645,3.191,2.645c1.418,0,2.644-1.111,3.217-2.717c0.508-0.473,0.809-1.162,0.809-2.146
		C-13.447,11.361-15.109,9.197-17.212,9.014z M-14.756,15.285l-0.129,0.121l-0.061,0.168c-0.484,1.354-1.478,2.229-2.525,2.229
		c-1.045,0-2.003-0.83-2.502-2.166l-0.065-0.18l-0.146-0.124c-0.424-0.36-0.63-0.901-0.63-1.657c0-0.309,0.034-0.609,0.098-0.904
		c0.043-0.135,0.111-0.306,0.601,0.511c0.432,0.718,0.111-1.25,0.735-1.25c0.625,0,1.065,0.706,1.883,0.706s1.258-0.706,1.882-0.706
		c0.625,0,0.332,1.985,0.736,1.25c0.596-1.083,0.57-0.505,0.602-0.509c0.064,0.293,0.098,0.597,0.098,0.902
		C-14.182,14.4-14.369,14.926-14.756,15.285z"/>
	<path fill="#2E2E2D" d="M-10.887,24.082c-0.955-4.834-3.291-6.23-3.564-6.23c-0.275,0-0.074-0.09-0.953,0.72
		c-0.885,0.807-2.096,0.75-2.096,0.75s-1.209,0.057-2.092-0.752c-0.882-0.812-0.68-0.718-0.957-0.718
		c-0.275,0-2.609,1.396-3.565,6.229c0,0-0.203,0.915,0.351,0.915C-23.212,25-17.5,25-17.5,25s5.711,0,6.264,0
		C-10.683,25-10.887,24.082-10.887,24.082z"/>
</g>
<g>
	<path fill="#0A7039" d="M87.788,9.014C87.701,9.005,87.615,9,87.527,9c-0.004,0-0.008,0.001-0.014,0.001
		C87.51,9.001,87.504,9,87.5,9c-2.238,0-4.051,2.255-4.051,4.676c0,1.037,0.332,1.745,0.887,2.219
		c0.583,1.565,1.793,2.645,3.191,2.645c1.418,0,2.644-1.111,3.217-2.717c0.508-0.473,0.809-1.162,0.809-2.146
		C91.553,11.361,89.891,9.197,87.788,9.014z M90.244,15.285l-0.129,0.121l-0.061,0.168c-0.484,1.354-1.479,2.229-2.525,2.229
		c-1.045,0-2.004-0.83-2.502-2.166l-0.065-0.18l-0.146-0.124c-0.424-0.36-0.631-0.901-0.631-1.657c0-0.309,0.035-0.609,0.099-0.904
		c0.043-0.135,0.11-0.306,0.601,0.511c0.432,0.718,0.111-1.25,0.735-1.25c0.625,0,1.065,0.706,1.883,0.706s1.259-0.706,1.882-0.706
		c0.625,0,0.332,1.985,0.736,1.25c0.596-1.083,0.57-0.505,0.602-0.509c0.064,0.293,0.098,0.597,0.098,0.902
		C90.818,14.4,90.631,14.926,90.244,15.285z"/>
	<path fill="#0A7039" d="M94.113,24.082c-0.955-4.834-3.291-6.23-3.564-6.23c-0.275,0-0.074-0.09-0.953,0.72
		c-0.885,0.807-2.096,0.75-2.096,0.75s-1.209,0.057-2.092-0.752c-0.883-0.812-0.68-0.718-0.957-0.718
		c-0.275,0-2.609,1.396-3.564,6.229c0,0-0.203,0.915,0.35,0.915C81.788,25,87.5,25,87.5,25s5.711,0,6.264,0
		S94.113,24.082,94.113,24.082z"/>
</g>
<rect x="106" fill="#F01B57" width="33" height="34"/>
<g>
	<path fill="#0A7039" d="M122.788,9.014C122.701,9.005,122.615,9,122.527,9c-0.004,0-0.008,0.001-0.014,0.001
		C122.51,9.001,122.504,9,122.5,9c-2.238,0-4.051,2.255-4.051,4.676c0,1.037,0.332,1.745,0.887,2.219
		c0.583,1.565,1.793,2.645,3.191,2.645c1.418,0,2.644-1.111,3.217-2.717c0.508-0.473,0.809-1.162,0.809-2.146
		C126.553,11.361,124.891,9.197,122.788,9.014z M125.244,15.285l-0.129,0.121l-0.061,0.168c-0.484,1.354-1.479,2.229-2.525,2.229
		c-1.045,0-2.004-0.83-2.502-2.166l-0.065-0.18l-0.146-0.124c-0.424-0.36-0.631-0.901-0.631-1.657c0-0.309,0.035-0.609,0.099-0.904
		c0.043-0.135,0.11-0.306,0.601,0.511c0.432,0.718,0.111-1.25,0.735-1.25c0.625,0,1.065,0.706,1.883,0.706s1.259-0.706,1.882-0.706
		c0.625,0,0.332,1.985,0.736,1.25c0.596-1.083,0.57-0.505,0.602-0.509c0.064,0.293,0.098,0.597,0.098,0.902
		C125.818,14.4,125.631,14.926,125.244,15.285z"/>
	<path fill="#0A7039" d="M129.113,24.082c-0.955-4.834-3.291-6.23-3.564-6.23c-0.275,0-0.074-0.09-0.953,0.72
		c-0.885,0.807-2.096,0.75-2.096,0.75s-1.209,0.057-2.092-0.752c-0.883-0.812-0.68-0.718-0.957-0.718
		c-0.275,0-2.609,1.396-3.564,6.229c0,0-0.203,0.915,0.35,0.915C116.788,25,122.5,25,122.5,25s5.711,0,6.264,0
		S129.113,24.082,129.113,24.082z"/>
</g>
<g>
	<path fill="#0A7039" d="M52.788,9.014C52.701,9.005,52.615,9,52.527,9c-0.004,0-0.008,0.001-0.014,0.001
		C52.51,9.001,52.504,9,52.5,9c-2.238,0-4.051,2.255-4.051,4.676c0,1.037,0.332,1.745,0.887,2.219
		c0.583,1.565,1.793,2.645,3.191,2.645c1.418,0,2.644-1.111,3.217-2.717c0.508-0.473,0.809-1.162,0.809-2.146
		C56.553,11.361,54.891,9.197,52.788,9.014z M55.244,15.285l-0.129,0.121l-0.061,0.168c-0.484,1.354-1.478,2.229-2.525,2.229
		c-1.045,0-2.004-0.83-2.502-2.166l-0.065-0.18l-0.146-0.124c-0.424-0.36-0.631-0.901-0.631-1.657c0-0.309,0.035-0.609,0.099-0.904
		c0.043-0.135,0.11-0.306,0.601,0.511c0.432,0.718,0.111-1.25,0.735-1.25c0.625,0,1.065,0.706,1.883,0.706s1.258-0.706,1.882-0.706
		c0.625,0,0.332,1.985,0.736,1.25c0.596-1.083,0.57-0.505,0.602-0.509c0.064,0.293,0.098,0.597,0.098,0.902
		C55.818,14.4,55.631,14.926,55.244,15.285z"/>
	<path fill="#0A7039" d="M59.113,24.082c-0.955-4.834-3.291-6.23-3.564-6.23c-0.275,0-0.074-0.09-0.953,0.72
		c-0.885,0.807-2.096,0.75-2.096,0.75s-1.209,0.057-2.092-0.752c-0.883-0.812-0.68-0.718-0.957-0.718
		c-0.275,0-2.609,1.396-3.565,6.229c0,0-0.202,0.915,0.351,0.915C46.788,25,52.5,25,52.5,25s5.711,0,6.264,0
		C59.317,25,59.113,24.082,59.113,24.082z"/>
</g>
</svg>
