<?xml version="1.0" encoding="utf-8"?>
<!-- Generator: Adobe Illustrator 15.0.2, SVG Export Plug-In . SVG Version: 6.00 Build 0)  -->
<!DOCTYPE svg PUBLIC "-//W3C//DTD SVG 1.1//EN" "http://www.w3.org/Graphics/SVG/1.1/DTD/svg11.dtd">
<svg version="1.1" id="Calque_1" xmlns="http://www.w3.org/2000/svg" xmlns:xlink="http://www.w3.org/1999/xlink" x="0px" y="0px"
	 width="175px" height="34px" viewBox="-35 0 175 34" enable-background="new -35 0 175 34" xml:space="preserve">
<rect x="1" opacity="0.3" fill="#D31147" enable-background="new    " width="33" height="34"/>
<rect x="36" fill="#F01B57" width="33" height="34"/>
<rect x="71" fill="#F01B57" width="33" height="34"/>
<path fill="#2E2E2D" d="M23.055,13.2V9.129h-2.219v2.379L17.564,9l-8.83,6.66l1.511,1.914L11.139,17v8h12.788v-8.148l0.829,0.703
	l1.51-1.895L23.055,13.2z M22.628,23.725h-2.853v-4.789h-4.488v4.789h-2.872v-7.596l5.15-3.916L22.629,16L22.628,23.725
	L22.628,23.725z"/>
<rect x="-34" opacity="0.3" fill="#D31147" enable-background="new    " width="33" height="34"/>
<path fill="#2E2E2D" d="M-11.945,13.2V9.129h-2.219v2.379L-17.436,9l-8.83,6.66l1.511,1.914L-23.861,17v8h12.788v-8.148l0.829,0.703
	l1.51-1.895L-11.945,13.2z M-12.372,23.725h-2.853v-4.789h-4.488v4.789h-2.872v-7.596l5.15-3.916L-12.371,16L-12.372,23.725
	L-12.372,23.725z"/>
<path fill="#0A7039" d="M93.055,13.2V9.129h-2.219v2.379L87.564,9l-8.83,6.66l1.511,1.914L81.139,17v8h12.789v-8.148l0.828,0.703
	l1.51-1.895L93.055,13.2z M92.628,23.725h-2.853v-4.789h-4.488v4.789h-2.872v-7.596l5.149-3.916L92.629,16L92.628,23.725
	L92.628,23.725z"/>
<rect x="106" fill="#F01B57" width="33" height="34"/>
<path fill="#0A7039" d="M128.055,13.2V9.129h-2.219v2.379L122.564,9l-8.83,6.66l1.511,1.914L116.139,17v8h12.789v-8.148l0.828,0.703
	l1.51-1.895L128.055,13.2z M127.628,23.725h-2.853v-4.789h-4.488v4.789h-2.872v-7.596l5.149-3.916L127.629,16L127.628,23.725
	L127.628,23.725z"/>
<path fill="#0A7039" d="M58.055,13.2V9.129h-2.219v2.379L52.564,9l-8.83,6.66l1.511,1.914L46.139,17v8h12.788v-8.148l0.829,0.703
	l1.51-1.895L58.055,13.2z M57.628,23.725h-2.853v-4.789h-4.488v4.789h-2.872v-7.596l5.15-3.916L57.629,16L57.628,23.725
	L57.628,23.725z"/>
</svg>
