<?xml version="1.0" encoding="utf-8"?>
<!-- Generator: Adobe Illustrator 15.0.2, SVG Export Plug-In . SVG Version: 6.00 Build 0)  -->
<!DOCTYPE svg PUBLIC "-//W3C//DTD SVG 1.1//EN" "http://www.w3.org/Graphics/SVG/1.1/DTD/svg11.dtd">
<svg version="1.1" id="Calque_1" xmlns="http://www.w3.org/2000/svg" xmlns:xlink="http://www.w3.org/1999/xlink" x="0px" y="0px"
	 width="24px" height="24px" viewBox="28 0 24 24" enable-background="new 28 0 24 24" xml:space="preserve">
<g>
	<path fill="#2D2D2D" d="M37.127,18.194c-0.211,0.214-0.56,0.214-0.77,0l-2.544-2.543c-0.212-0.213-0.212-0.562,0-0.771l8.134-8.129
		c0.211-0.212,0.559-0.212,0.771,0l2.54,2.543c0.214,0.213,0.214,0.561,0,0.771L37.127,18.194z M47.253,4.754
		c-1.451-1.452-2.883-0.333-2.883-0.333c-0.238,0.183-0.602,0.506-0.811,0.712c-0.208,0.21-0.204,0.554,0.006,0.766l2.543,2.543
		c0.213,0.214,0.557,0.217,0.768,0.008c0.207-0.21,0.529-0.574,0.713-0.812C47.589,7.64,48.708,6.209,47.253,4.754 M34.119,19.546
		c0.292-0.07,0.356-0.305,0.144-0.516l-1.307-1.303c-0.211-0.211-0.445-0.146-0.517,0.145l-0.423,1.703
		c-0.073,0.292,0.106,0.471,0.398,0.398L34.119,19.546z"/>
</g>
</svg>
