<?xml version="1.0" encoding="utf-8"?>
<!-- Generator: Adobe Illustrator 15.0.2, SVG Export Plug-In . SVG Version: 6.00 Build 0)  -->
<!DOCTYPE svg PUBLIC "-//W3C//DTD SVG 1.1//EN" "http://www.w3.org/Graphics/SVG/1.1/DTD/svg11.dtd">
<svg version="1.1" id="Calque_1" xmlns="http://www.w3.org/2000/svg" xmlns:xlink="http://www.w3.org/1999/xlink" x="0px" y="0px"
	 width="24px" height="24px" viewBox="28 0 24 24" enable-background="new 28 0 24 24" xml:space="preserve">
<path fill="#2D2D2D" d="M39.729,4c-0.655,0-1.192,0.455-1.313,1.076h-0.035l-4.313,4.856h2.156l2.983-3.354
	c0.161,0.068,0.337,0.119,0.521,0.119c0.187,0,0.361-0.051,0.524-0.119l2.98,3.354h2.159l-4.315-4.855h-0.033
	C40.926,4.455,40.388,4,39.729,4L39.729,4z M31.913,10.293c-0.598,0-1.079,0.481-1.079,1.079v0.539c0,0.569,0.437,1.017,0.995,1.063
	l1.701,5.945C34.068,20,34.608,20,35.146,20h9.708c0.54,0,1.077,0,1.617-1.079l1.703-5.946c0.556-0.047,0.992-0.494,0.992-1.063
	v-0.539c0-0.598-0.479-1.079-1.076-1.079L31.913,10.293L31.913,10.293z M34.946,12.988h0.269c0.598,0,1.188,0.451,1.314,1.012
	l0.758,3.354c0.126,0.563-0.261,1.026-0.858,1.026h-0.272c-0.598,0-1.188-0.463-1.314-1.026L34.084,14
	C33.958,13.439,34.348,12.988,34.946,12.988L34.946,12.988z M40,12.988c0.598,0,1.078,0.482,1.078,1.08v3.234
	c0,0.6-0.479,1.076-1.078,1.076s-1.08-0.479-1.08-1.076v-3.234C38.921,13.471,39.403,12.988,40,12.988L40,12.988z M44.785,12.988
	h0.271c0.598,0,0.983,0.451,0.858,1.012l-0.76,3.354c-0.126,0.563-0.716,1.026-1.313,1.026H43.57c-0.598,0-0.984-0.463-0.857-1.026
	L43.472,14C43.598,13.439,44.187,12.988,44.785,12.988L44.785,12.988z"/>
</svg>
