<?xml version="1.0" encoding="utf-8"?>
<!-- Generator: Adobe Illustrator 15.0.2, SVG Export Plug-In . SVG Version: 6.00 Build 0)  -->
<!DOCTYPE svg PUBLIC "-//W3C//DTD SVG 1.1//EN" "http://www.w3.org/Graphics/SVG/1.1/DTD/svg11.dtd">
<svg version="1.1" id="Calque_1" xmlns="http://www.w3.org/2000/svg" xmlns:xlink="http://www.w3.org/1999/xlink" x="0px" y="0px"
	 width="24px" height="24px" viewBox="28 0 24 24" enable-background="new 28 0 24 24" xml:space="preserve">
<path fill="#2D2D2D" d="M44.65,13.323c-0.963,0-1.829,0.404-2.441,1.053l-3.611-1.813c0.032-0.187,0.05-0.377,0.05-0.573
	c0-0.293-0.038-0.576-0.109-0.847l3.805-2.331c0.459,0.354,1.032,0.565,1.657,0.565c1.493,0,2.705-1.21,2.705-2.704
	c0-1.492-1.21-2.704-2.705-2.704c-1.496,0-2.704,1.21-2.704,2.704c0,0.173,0.018,0.34,0.047,0.505l-3.807,2.332
	c-0.587-0.525-1.363-0.845-2.213-0.845C33.488,8.666,32,10.154,32,11.99s1.488,3.323,3.324,3.323c0.951,0,1.807-0.398,2.413-1.039
	l3.61,1.816c-0.033,0.189-0.053,0.387-0.053,0.586c0,1.852,1.502,3.354,3.354,3.354S48,18.528,48,16.677
	C47.999,14.826,46.501,13.323,44.65,13.323z"/>
</svg>
