<?xml version="1.0" encoding="utf-8"?>
<!-- Generator: Adobe Illustrator 15.0.2, SVG Export Plug-In . SVG Version: 6.00 Build 0)  -->
<!DOCTYPE svg PUBLIC "-//W3C//DTD SVG 1.1//EN" "http://www.w3.org/Graphics/SVG/1.1/DTD/svg11.dtd">
<svg version="1.1" id="Calque_1" xmlns="http://www.w3.org/2000/svg" xmlns:xlink="http://www.w3.org/1999/xlink" x="0px" y="0px"
	 width="24px" height="24px" viewBox="28 0 24 24" enable-background="new 28 0 24 24" xml:space="preserve">
<path fill="#2D2D2D" d="M47.988,9.941c0-2.675-1.814-5.099-4.521-5.767C42.99,4.056,42.509,4,42.039,4
	c-2.677-0.002-5.098,1.816-5.771,4.525c-0.117,0.476-0.173,0.954-0.173,1.425c0,1.063,0.296,2.079,0.811,2.969l-4.454,4.496
	c-0.591,0.595-0.585,1.558,0.009,2.146C32.757,19.854,33.144,20,33.529,20c0.39,0,0.781-0.15,1.077-0.449l4.443-4.484
	c0.482,0.281,1,0.521,1.569,0.656c0.477,0.116,0.953,0.172,1.425,0.172c2.675,0,5.102-1.813,5.771-4.521l-0.883-0.219l0.883,0.218
	C47.931,10.893,47.988,10.414,47.988,9.941z M46.047,10.934c-0.461,1.882-2.151,3.14-4.004,3.14c-0.326,0-0.658-0.038-0.989-0.119
	c-0.5-0.123-0.951-0.337-1.35-0.613c-0.42-0.289-0.772-0.656-1.055-1.071c-0.461-0.675-0.732-1.477-0.732-2.319
	c0-0.327,0.038-0.657,0.12-0.987c0.464-1.882,2.152-3.143,4.002-3.143c0.325,0,0.655,0.038,0.988,0.121
	c1.881,0.461,3.139,2.15,3.139,4C46.166,10.268,46.128,10.599,46.047,10.934z"/>
</svg>
