<?xml version="1.0" encoding="utf-8"?>
<!-- Generator: Adobe Illustrator 15.0.2, SVG Export Plug-In . SVG Version: 6.00 Build 0)  -->
<!DOCTYPE svg PUBLIC "-//W3C//DTD SVG 1.1//EN" "http://www.w3.org/Graphics/SVG/1.1/DTD/svg11.dtd">
<svg version="1.1" id="Calque_1" xmlns="http://www.w3.org/2000/svg" xmlns:xlink="http://www.w3.org/1999/xlink" x="0px" y="0px"
	 width="175px" height="34px" viewBox="-35 0 175 34" enable-background="new -35 0 175 34" xml:space="preserve">
<g>
	<rect x="1" opacity="0.3" fill="#D31147" enable-background="new    " width="33" height="34"/>
	<g>
		<g>
			<path fill="#2E2E2D" d="M10.138,11l6.754,6.756c0.162,0.162,0.377,0.25,0.608,0.25c0.232,0,0.447-0.088,0.609-0.25L24.865,11
				H10.138z"/>
			<g>
				<path fill="#2E2E2D" d="M20.084,17.016L18.74,18.36c-0.332,0.334-0.77,0.497-1.209,0.497c-0.44,0-0.877-0.163-1.212-0.497
					l-1.371-1.373l-5.656,5.655c-0.037,0.037-0.074,0.068-0.11,0.101C9.334,22.9,9.552,23,9.792,23h15.417
					c0.242,0,0.459-0.1,0.614-0.259c-0.039-0.03-0.075-0.063-0.112-0.102L20.084,17.016z"/>
			</g>
			<g>
				<path fill="#2E2E2D" d="M9.317,11.36c-0.043-0.044-0.073-0.088-0.108-0.129c-0.171,0.158-0.277,0.381-0.277,0.63v9.933
					l5.411-5.411L9.317,11.36z"/>
				<path fill="#2E2E2D" d="M25.738,11.36l-5.055,5.051l5.385,5.383v-9.933c0-0.234-0.094-0.447-0.248-0.602
					C25.792,11.292,25.771,11.325,25.738,11.36z"/>
			</g>
		</g>
	</g>
</g>
<g>
	<rect x="-34" opacity="0.3" fill="#D31147" enable-background="new    " width="33" height="34"/>
	<g>
		<g>
			<path fill="#2E2E2D" d="M-24.862,11l6.754,6.756c0.162,0.162,0.377,0.25,0.608,0.25c0.232,0,0.447-0.088,0.609-0.25L-10.135,11
				H-24.862z"/>
			<g>
				<path fill="#2E2E2D" d="M-14.916,17.016l-1.344,1.344c-0.332,0.334-0.77,0.497-1.209,0.497c-0.44,0-0.877-0.163-1.212-0.497
					l-1.371-1.373l-5.656,5.655c-0.037,0.037-0.074,0.068-0.11,0.101C-25.666,22.9-25.448,23-25.208,23h15.417
					c0.242,0,0.459-0.1,0.614-0.259c-0.039-0.03-0.075-0.063-0.112-0.102L-14.916,17.016z"/>
			</g>
			<g>
				<path fill="#2E2E2D" d="M-25.683,11.36c-0.043-0.044-0.073-0.088-0.108-0.129c-0.171,0.158-0.277,0.381-0.277,0.63v9.933
					l5.411-5.411L-25.683,11.36z"/>
				<path fill="#2E2E2D" d="M-9.262,11.36l-5.055,5.051l5.385,5.383v-9.933c0-0.234-0.094-0.447-0.248-0.602
					C-9.208,11.292-9.229,11.325-9.262,11.36z"/>
			</g>
		</g>
	</g>
</g>
<rect x="36" fill="#F01B57" width="33" height="34"/>
<g>
	<path fill="#0A7039" d="M45.136,11l6.755,6.756c0.162,0.162,0.377,0.25,0.609,0.25s0.447-0.088,0.609-0.25L59.865,11H45.136z"/>
	<g>
		<path fill="#0A7039" d="M55.084,17.014l-1.344,1.344c-0.332,0.334-0.77,0.498-1.209,0.498c-0.44,0-0.878-0.164-1.212-0.498
			l-1.372-1.372l-5.657,5.657c-0.037,0.037-0.074,0.068-0.111,0.101C44.335,22.9,44.553,23,44.792,23h15.42
			c0.239,0,0.456-0.1,0.614-0.258c-0.038-0.029-0.075-0.063-0.112-0.1L55.084,17.014z"/>
	</g>
	<g>
		<path fill="#0A7039" d="M44.317,11.359c-0.044-0.045-0.074-0.088-0.109-0.129c-0.171,0.158-0.277,0.381-0.277,0.63v9.935
			l5.411-5.414L44.317,11.359z"/>
		<path fill="#0A7039" d="M60.738,11.359l-5.055,5.051l5.385,5.384V11.86c0-0.234-0.092-0.447-0.246-0.603
			C60.793,11.292,60.773,11.325,60.738,11.359z"/>
	</g>
</g>
<rect x="71" fill="#F01B57" width="33" height="34"/>
<g>
	<path fill="#0A7039" d="M80.137,11l6.754,6.756c0.162,0.162,0.377,0.25,0.609,0.25s0.447-0.088,0.609-0.25L94.865,11H80.137z"/>
	<g>
		<path fill="#0A7039" d="M90.084,17.014l-1.344,1.344c-0.332,0.334-0.77,0.498-1.209,0.498c-0.44,0-0.879-0.164-1.213-0.498
			l-1.371-1.372l-5.657,5.657c-0.037,0.037-0.074,0.068-0.11,0.101C79.335,22.9,79.553,23,79.792,23h15.42
			c0.239,0,0.456-0.1,0.614-0.258c-0.038-0.029-0.075-0.063-0.112-0.1L90.084,17.014z"/>
	</g>
	<g>
		<path fill="#0A7039" d="M79.316,11.359c-0.043-0.045-0.073-0.088-0.108-0.129c-0.171,0.158-0.276,0.381-0.276,0.63v9.935
			l5.41-5.414L79.316,11.359z"/>
		<path fill="#0A7039" d="M95.738,11.359l-5.055,5.051l5.385,5.384V11.86c0-0.234-0.092-0.447-0.246-0.603
			C95.793,11.292,95.773,11.325,95.738,11.359z"/>
	</g>
</g>
<rect x="106" fill="#F01B57" width="33" height="34"/>
<g>
	<path fill="#0A7039" d="M115.137,11l6.754,6.756c0.162,0.162,0.377,0.25,0.609,0.25s0.447-0.088,0.609-0.25L129.865,11H115.137z"/>
	<g>
		<path fill="#0A7039" d="M125.084,17.014l-1.344,1.344c-0.332,0.334-0.77,0.498-1.209,0.498c-0.44,0-0.879-0.164-1.213-0.498
			l-1.371-1.372l-5.657,5.657c-0.037,0.037-0.074,0.068-0.11,0.101C114.335,22.9,114.553,23,114.792,23h15.42
			c0.239,0,0.456-0.1,0.614-0.258c-0.038-0.029-0.075-0.063-0.112-0.1L125.084,17.014z"/>
	</g>
	<g>
		<path fill="#0A7039" d="M114.316,11.359c-0.043-0.045-0.073-0.088-0.108-0.129c-0.171,0.158-0.276,0.381-0.276,0.63v9.935
			l5.41-5.414L114.316,11.359z"/>
		<path fill="#0A7039" d="M130.738,11.359l-5.055,5.051l5.385,5.384V11.86c0-0.234-0.092-0.447-0.246-0.603
			C130.793,11.292,130.773,11.325,130.738,11.359z"/>
	</g>
</g>
</svg>
