<?xml version="1.0" encoding="utf-8"?>
<!-- Generator: Adobe Illustrator 15.0.2, SVG Export Plug-In . SVG Version: 6.00 Build 0)  -->
<!DOCTYPE svg PUBLIC "-//W3C//DTD SVG 1.1//EN" "http://www.w3.org/Graphics/SVG/1.1/DTD/svg11.dtd">
<svg version="1.1" id="Calque_1" xmlns="http://www.w3.org/2000/svg" xmlns:xlink="http://www.w3.org/1999/xlink" x="0px" y="0px"
	 width="24px" height="24px" viewBox="28 0 24 24" enable-background="new 28 0 24 24" xml:space="preserve">
<g>
	<path fill="#2D2D2D" d="M43.543,5.336c-0.228,0-0.446,1.376-0.663,1.421l-2.707,4.409l2.65,1.497l-0.916,5.124
		c0.55-0.517,1.159-1.072,1.61-1.438C45.722,14.541,48,12.678,48,9.789C48.002,7.167,46.17,5.336,43.543,5.336z"/>
	<path fill="#2D2D2D" d="M36.672,12.282l2.686-4.367c-0.738-0.62-1.755-2.578-2.898-2.578c-2.625,0-4.46,1.831-4.46,4.452
		c0,2.889,2.276,4.752,4.48,6.559c0.744,0.609,1.919,1.727,2.534,2.316l0.819-4.592L36.672,12.282z"/>
</g>
</svg>
