<?xml version="1.0" encoding="utf-8"?>
<!-- Generator: Adobe Illustrator 15.0.2, SVG Export Plug-In . SVG Version: 6.00 Build 0)  -->
<!DOCTYPE svg PUBLIC "-//W3C//DTD SVG 1.1//EN" "http://www.w3.org/Graphics/SVG/1.1/DTD/svg11.dtd">
<svg version="1.1" id="Calque_1" xmlns="http://www.w3.org/2000/svg" xmlns:xlink="http://www.w3.org/1999/xlink" x="0px" y="0px"
	 width="139.982px" height="139.982px" viewBox="0 0 139.982 139.982" enable-background="new 0 0 139.982 139.982"
	 xml:space="preserve">
<g>
	<g>
		<path fill="#EACAB3" d="M94.741,55.254V20.99H66.543H38.345v34.264c0,0-6.71-5.587-6.71,3.875
			c0,9.463,10.247,12.777,10.247,12.777s2.728,11.422,4.716,13.779c1.99,2.358,15.818,2.943,15.818,10.683l4.126,0.591l4.127-0.591
			c0-7.739,13.828-8.324,15.818-10.683c1.989-2.357,4.715-13.779,4.715-13.779s10.25-3.314,10.25-12.777
			C101.453,49.667,94.741,55.254,94.741,55.254z"/>
		<path fill="#7D6251" d="M41.294,55.254V29.17c0,0,8.105,3.684,29.621,3.684l-1.916-3.684c0,0,5.012,1.622,10.905,1.622
			c5.895,0,11.054-1.622,11.054-1.622v26.084h3.536c0,0,1.326-3.685,4.125-5.453c2.801-1.769-2.063-0.737-2.063-10.611l2.935,1.18
			c0,0-2.343-5.452-2.343-11.2c0-5.747,11.199-8.105,11.199-17.832c0,0-2.948,3.242-9.728,3.242
			c-6.778,0-11.542-14.589-32.076-14.589c-20.533,0-21.27,8.694-21.27,8.694s-8.425-1.032-8.425,4.863
			c0,5.894-1.449,26.231-3.954,26.231l3.226-1.862c0,0,0.531,9.304-1.31,11.146l3.535,6.19H41.294z"/>
		<path fill="#7D6251" d="M37.609,57.512c0.989,0.531,1.841,1.316,2.485,2.285c0.33,0.481,0.571,1.032,0.742,1.616
			c0.082,0.293,0.121,0.602,0.144,0.91c0.007,0.173,0.015,0.292,0.002,0.481c-0.026,0.18,0.003,0.349-0.206,0.689
			c-0.097,0.182-0.447,0.363-0.671,0.329c-0.222-0.013-0.335-0.074-0.431-0.118c-0.185-0.095-0.302-0.184-0.418-0.265
			c-0.217-0.158-0.426-0.286-0.531-0.322c-0.087-0.011,0.013-0.085-0.127,0.043c-0.099,0.125-0.2,0.351-0.28,0.581
			c-0.307,0.963-0.456,2.069-0.709,3.151c-0.233-1.097-0.358-2.195-0.187-3.369c0.052-0.297,0.113-0.603,0.314-0.936
			c0.103-0.163,0.25-0.353,0.505-0.477c0.251-0.127,0.551-0.126,0.761-0.076c0.425,0.108,0.669,0.31,0.902,0.454
			c0.111,0.072,0.219,0.141,0.277,0.167c0.024,0.014,0.045,0.005-0.04-0.006c-0.085-0.022-0.301,0.092-0.322,0.156
			c-0.05,0.153,0.04-0.247,0.011-0.432c-0.006-0.237-0.038-0.471-0.079-0.709c-0.08-0.479-0.256-0.951-0.459-1.421
			C38.865,59.305,38.274,58.406,37.609,57.512z"/>
		<path fill="#7D6251" d="M97.311,57.512c-0.987,0.531-1.84,1.316-2.482,2.285c-0.331,0.481-0.574,1.032-0.743,1.616
			c-0.084,0.293-0.123,0.602-0.145,0.91c-0.007,0.173-0.013,0.292-0.003,0.481c0.028,0.18,0,0.349,0.206,0.689
			c0.099,0.182,0.449,0.363,0.672,0.329c0.223-0.013,0.334-0.074,0.431-0.118c0.186-0.095,0.302-0.184,0.418-0.265
			c0.217-0.158,0.428-0.286,0.53-0.322c0.088-0.011-0.012-0.085,0.129,0.043c0.1,0.125,0.2,0.351,0.281,0.581
			c0.307,0.963,0.454,2.069,0.706,3.151c0.233-1.097,0.359-2.195,0.187-3.369c-0.05-0.297-0.113-0.603-0.313-0.936
			c-0.104-0.163-0.252-0.353-0.504-0.477c-0.252-0.127-0.554-0.126-0.764-0.076c-0.424,0.108-0.667,0.31-0.901,0.454
			c-0.11,0.072-0.218,0.141-0.277,0.167c-0.025,0.014-0.043,0.005,0.041-0.006c0.084-0.022,0.3,0.092,0.321,0.156
			c0.05,0.153-0.04-0.247-0.01-0.432c0.005-0.237,0.039-0.471,0.078-0.709c0.081-0.479,0.258-0.951,0.459-1.421
			C96.056,59.305,96.649,58.406,97.311,57.512z"/>
		<path fill="#7D6251" d="M66.543,43.759c0.628,2.007,1.246,4.014,1.813,6.03l1.747,6.034l1.752,6.017
			c0.614,1.991,1.224,3.993,1.997,5.893l0.282,0.696l-0.712-0.027L68.9,68.228c-1.506-0.096-3.013-0.162-4.518-0.299
			c1.505-0.139,3.012-0.205,4.518-0.3l4.521-0.173l-0.432,0.667c-0.925-1.933-1.604-3.931-2.241-5.94
			c-0.643-2.007-1.188-4.038-1.711-6.073c-0.522-2.035-0.972-4.086-1.394-6.144C67.205,47.911,66.847,45.841,66.543,43.759z"/>
		<path fill="#7D6251" d="M60.158,80.602c1.866-0.467,3.734-0.569,5.6-0.591c1.867,0.018,3.733,0.122,5.602,0.591
			c-1.868,0.466-3.734,0.572-5.602,0.59C63.892,81.17,62.024,81.066,60.158,80.602z"/>
		<path fill="#7D6251" d="M52.347,47.148c0,1.629,0.791,2.948,1.748,2.948c0.998,0,1.789-1.318,1.789-2.948
			c0-1.627-0.791-2.947-1.789-2.947C53.138,44.201,52.347,45.521,52.347,47.148z"/>
		<path fill="#7D6251" d="M77.105,47.148c0,1.629,0.791,2.948,1.748,2.948c0.999,0,1.788-1.318,1.788-2.948
			c0-1.627-0.789-2.947-1.788-2.947C77.896,44.201,77.105,45.521,77.105,47.148z"/>
	</g>
	<path fill="#F7F7F7" d="M70.67,119.114l7.109-22.481c-6.03-0.734-11.236,0.326-11.236,0.326s-5.221-1.063-11.263-0.322
		l7.137,22.478H70.67z"/>
	<path fill="#5A5A5A" d="M77.779,96.633l-7.109,22.481h-8.253L55.28,96.636c-8.305,1.017-18.161,5.451-18.161,20.807
		c0,0,2.063,22.548,9.137,22.548s20.287,0,20.287,0s13.214,0,20.288,0c7.073,0,9.136-22.548,9.136-22.548
		C95.967,102.07,86.088,97.643,77.779,96.633z"/>
	<polygon fill="#5A5A5A" points="70.62,96.368 70.67,120.37 62.417,120.37 62.417,96.368 66.543,96.959 	"/>
</g>
</svg>
