<?xml version="1.0" encoding="utf-8"?>
<!-- Generator: Adobe Illustrator 15.0.2, SVG Export Plug-In . SVG Version: 6.00 Build 0)  -->
<!DOCTYPE svg PUBLIC "-//W3C//DTD SVG 1.1//EN" "http://www.w3.org/Graphics/SVG/1.1/DTD/svg11.dtd">
<svg version="1.1" id="Calque_1" xmlns="http://www.w3.org/2000/svg" xmlns:xlink="http://www.w3.org/1999/xlink" x="0px" y="0px"
	 width="80px" height="80px" viewBox="0 0 80 80" enable-background="new 0 0 80 80" xml:space="preserve">
<g>
	<g>
		<path fill="#FFFBFF" d="M37.763,12.984c-2.103,0.001-4.208,0.155-6.275,0.521c-2.065,0.367-4.087,0.957-5.998,1.767
			c-3.829,1.628-7.115,4.261-9.445,7.538c-2.356,3.269-3.819,7.117-4.668,11.111c-0.208,1-0.374,2.013-0.517,3.033
			c-0.14,1.017-0.231,2.044-0.3,3.078c-0.066,1.029-0.095,2.066-0.085,3.102c0.011,1.029,0.057,2.084,0.165,3.083l-0.623-0.525
			c4.624,0.181,9.249,0.282,13.874,0.244c4.623-0.018,9.25-0.135,13.873-0.304l6.939-0.242c2.308-0.068,4.625-0.138,6.933-0.174
			c4.626-0.078,9.249-0.146,13.876-0.196l-1.283,1.089c0.031-0.214,0.06-0.478,0.091-0.723c0.025-0.25,0.051-0.499,0.068-0.754
			c0.043-0.508,0.073-1.015,0.093-1.524c0.041-1.02,0.055-2.041,0.026-3.061c-0.051-2.042-0.255-4.075-0.609-6.073
			c-0.713-3.994-2.149-7.836-4.458-11.122c-1.158-1.634-2.537-3.127-4.13-4.399c-1.581-1.279-3.37-2.333-5.273-3.156
			c-1.908-0.812-3.93-1.4-5.99-1.771C41.972,13.152,39.865,12.993,37.763,12.984z M37.763,12.731
			c2.116-0.007,4.232,0.098,6.338,0.357c2.106,0.259,4.213,0.665,6.258,1.321c2.048,0.646,4.046,1.543,5.891,2.726
			c1.842,1.188,3.523,2.662,4.927,4.378c1.423,1.701,2.551,3.637,3.435,5.661c0.869,2.031,1.504,4.15,1.918,6.301
			c0.426,2.149,0.642,4.327,0.685,6.504c0.021,1.087,0.006,2.177-0.061,3.262c-0.036,0.545-0.079,1.088-0.136,1.632
			c-0.028,0.271-0.061,0.546-0.097,0.818c-0.032,0.282-0.069,0.534-0.122,0.845l-0.005,0.018c-0.106,0.633-0.657,1.077-1.279,1.07
			c-4.626-0.051-9.252-0.118-13.876-0.201c-2.312-0.034-4.627-0.101-6.937-0.168l-6.936-0.246c-4.624-0.169-9.249-0.289-13.873-0.3
			c-4.623-0.036-9.249,0.059-13.874,0.239c-0.301,0.013-0.562-0.197-0.616-0.484l-0.007-0.038c-0.208-1.09-0.338-2.139-0.438-3.214
			c-0.097-1.068-0.156-2.147-0.172-3.221c-0.021-1.079,0.019-2.157,0.092-3.238c0.07-1.079,0.201-2.159,0.385-3.23
			c0.353-2.147,0.934-4.271,1.78-6.3c0.849-2.025,1.961-3.962,3.36-5.674c1.389-1.718,3.065-3.194,4.896-4.388
			c1.841-1.185,3.833-2.084,5.878-2.732c2.047-0.657,4.147-1.065,6.251-1.326C33.532,12.843,35.65,12.731,37.763,12.731z"/>
	</g>
	<g>
		<path fill="#FFFBFF" d="M12.079,52.007l6.445-0.063l6.444-0.02l12.889-0.042l12.891,0.042l6.445,0.02l6.444,0.063
			c0.07,0.002,0.124,0.06,0.124,0.125c0,0.062-0.042,0.111-0.1,0.124l-0.02,0.006c-4.298,0.896-8.596,1.341-12.888,1.687
			c-4.298,0.314-8.595,0.461-12.891,0.465c-4.298,0.004-8.594-0.144-12.89-0.457c-4.297-0.342-8.594-0.792-12.89-1.69l-0.024-0.005
			c-0.067-0.017-0.111-0.082-0.096-0.149C11.97,52.048,12.021,52.009,12.079,52.007z"/>
	</g>
	<g>
		<path fill="#FFFBFF" d="M16.578,58.768l5.392-0.059l5.39-0.02l10.779-0.039l10.781,0.039l5.389,0.02l5.391,0.059
			c0.062,0,0.115,0.051,0.112,0.113c0,0.056-0.036,0.1-0.09,0.11l-0.024,0.005c-3.591,0.814-7.188,1.242-10.776,1.532
			c-3.592,0.313-7.188,0.43-10.781,0.437c-3.591-0.001-7.186-0.119-10.779-0.432c-3.594-0.288-7.187-0.717-10.781-1.534
			l-0.023-0.006c-0.062-0.016-0.099-0.076-0.085-0.136C16.479,58.803,16.527,58.768,16.578,58.768z"/>
	</g>
	<g>
		<path fill="#FFFBFF" d="M20.596,62.911c0.375,0.147,0.738,0.302,1.114,0.438c0.367,0.146,0.73,0.287,1.099,0.416
			c0.739,0.258,1.461,0.521,2.189,0.753c1.452,0.475,2.89,0.889,4.327,1.227c2.871,0.685,5.732,1.056,8.583,1.068
			c2.855,0.014,5.7-0.346,8.557-1.05c2.87-0.685,5.714-1.738,8.752-2.856l0.032-0.011c0.064-0.025,0.135,0.009,0.154,0.073
			c0.021,0.052,0.002,0.11-0.037,0.144c-1.256,0.941-2.566,1.811-3.933,2.585c-1.372,0.762-2.803,1.423-4.279,1.968
			c-2.951,1.09-6.1,1.675-9.254,1.677c-3.159-0.021-6.297-0.621-9.256-1.688c-2.958-1.067-5.768-2.563-8.213-4.551
			c-0.053-0.044-0.06-0.122-0.019-0.175c0.034-0.044,0.091-0.058,0.139-0.036L20.596,62.911z"/>
	</g>
	<g>
		<path fill="#FFFBFF" d="M20.538,46.323h-3.656c0-21.886,12-26.276,12.51-26.453l1.191,3.458l-0.597-1.729l0.613,1.723
			C30.188,23.472,20.538,27.222,20.538,46.323z"/>
	</g>
	<g>
		<path fill="#FFFBFF" d="M34.459,24.622c0,0,3.163,1.897,3.303,2.25c0.139,0.352,0.374-1.757,0.374-1.757l0.329,1.795
			c0,0,2.181,2.562,2.181,3.055c0,0.491,0.491-1.829,0.491-1.829s0.421,5.131,1.969,6.467c0,0,3.305-6.75-2.817-13.358
			c0,0,1.342-0.35,4.292,0.914l0.42-0.958l0.351,1.242c0,0,2.813,1.897,3.303,2.671c0,0-4.065-9.749-7.616-10.383
			c0,0,0.94-1.406,8.628,2.718c0,0-8.932-10.687-18.375-5.249c0,0-8.718-2.837-15.06,8.753c0,0,2.474-4.137,8.31-3.081
			c0,0-2.742,0.07-5.836,4.359c-1.289,1.785-1.336,7.803-1.336,7.803s1.782-3.092,3.141-3.584v-1.266l0.656,0.774
			C21.172,25.958,26.445,20.754,34.459,24.622z"/>
	</g>
	<g>
		<circle fill="#FFFBFF" cx="32.237" cy="23.848" r="2.249"/>
	</g>
</g>
</svg>
