<?xml version="1.0" encoding="utf-8"?>
<!-- Generator: Adobe Illustrator 15.0.2, SVG Export Plug-In . SVG Version: 6.00 Build 0)  -->
<!DOCTYPE svg PUBLIC "-//W3C//DTD SVG 1.1//EN" "http://www.w3.org/Graphics/SVG/1.1/DTD/svg11.dtd">
<svg version="1.1" id="Calque_1" xmlns="http://www.w3.org/2000/svg" xmlns:xlink="http://www.w3.org/1999/xlink" x="0px" y="0px"
	 width="80px" height="80px" viewBox="0 0 80 80" enable-background="new 0 0 80 80" xml:space="preserve">
<g>
	<g>
		<path fill="#FFFBFF" d="M39.766,12.375c-2.15,0.001-4.304,0.158-6.417,0.535c-2.111,0.378-4.179,0.979-6.134,1.808
			c-3.914,1.666-7.276,4.356-9.658,7.707c-2.409,3.345-3.906,7.278-4.774,11.362c-0.213,1.022-0.382,2.058-0.529,3.101
			c-0.143,1.042-0.235,2.088-0.307,3.145c-0.07,1.054-0.097,2.116-0.088,3.172c0.01,1.058,0.059,2.13,0.168,3.151l-0.638-0.538
			c4.727,0.187,9.458,0.29,14.186,0.25c4.73-0.018,9.46-0.139,14.19-0.309l7.094-0.248c2.359-0.069,4.729-0.141,7.084-0.177
			c4.731-0.081,9.457-0.149,14.191-0.201l-1.313,1.116c0.032-0.217,0.062-0.493,0.095-0.741c0.028-0.256,0.049-0.508,0.069-0.771
			c0.043-0.519,0.074-1.034,0.095-1.558c0.039-1.043,0.058-2.086,0.029-3.129c-0.05-2.088-0.263-4.168-0.62-6.211
			c-0.731-4.082-2.199-8.011-4.561-11.373c-1.182-1.669-2.594-3.198-4.221-4.498c-1.62-1.309-3.444-2.386-5.392-3.229
			c-1.952-0.832-4.021-1.434-6.128-1.812C44.065,12.549,41.915,12.387,39.766,12.375z M39.766,12.12
			c2.162-0.009,4.329,0.099,6.479,0.364c2.156,0.265,4.309,0.68,6.396,1.35c2.092,0.661,4.136,1.578,6.02,2.788
			c1.885,1.215,3.604,2.722,5.04,4.474c1.452,1.739,2.607,3.72,3.513,5.789c0.886,2.079,1.536,4.245,1.962,6.443
			c0.433,2.196,0.651,4.425,0.699,6.649c0.024,1.11,0.004,2.229-0.064,3.331c-0.035,0.56-0.081,1.115-0.139,1.674
			c-0.031,0.275-0.06,0.556-0.099,0.834c-0.034,0.285-0.072,0.547-0.123,0.863l-0.004,0.018c-0.111,0.647-0.675,1.104-1.311,1.099
			c-4.729-0.051-9.46-0.118-14.191-0.206c-2.365-0.035-4.731-0.104-7.092-0.171l-7.09-0.257c-4.73-0.17-9.457-0.294-14.19-0.306
			c-4.725-0.037-9.455,0.061-14.186,0.249c-0.307,0.011-0.572-0.205-0.631-0.496l-0.007-0.038c-0.213-1.114-0.345-2.189-0.449-3.29
			c-0.098-1.092-0.16-2.194-0.177-3.292c-0.021-1.104,0.021-2.205,0.093-3.311c0.073-1.103,0.205-2.208,0.393-3.301
			c0.362-2.196,0.956-4.367,1.822-6.442c0.869-2.073,2.006-4.049,3.436-5.801c1.421-1.757,3.136-3.267,5.008-4.489
			c1.881-1.21,3.918-2.131,6.008-2.792c2.097-0.672,4.241-1.088,6.395-1.357C35.44,12.234,37.604,12.12,39.766,12.12z"/>
	</g>
	<g>
		<path fill="#FFFBFF" d="M13.504,52.28l6.589-0.062l6.589-0.024l13.179-0.039l13.181,0.039l6.591,0.024l6.59,0.062
			c0.07,0.003,0.127,0.059,0.127,0.129c0,0.063-0.042,0.115-0.103,0.122l-0.021,0.011c-4.396,0.917-8.793,1.37-13.179,1.725
			c-4.396,0.319-8.792,0.473-13.183,0.476c-4.393,0.003-8.789-0.146-13.178-0.469c-4.396-0.349-8.789-0.809-13.181-1.73
			l-0.022-0.004c-0.069-0.018-0.114-0.081-0.098-0.152C13.393,52.322,13.444,52.283,13.504,52.28z"/>
	</g>
	<g>
		<path fill="#FFFBFF" d="M18.102,59.195l5.515-0.062l5.51-0.021l11.023-0.038l11.023,0.038l5.508,0.021l5.512,0.062
			c0.062,0,0.114,0.046,0.114,0.114c0,0.058-0.038,0.102-0.092,0.112l-0.027,0.003c-3.673,0.834-7.347,1.271-11.015,1.569
			c-3.677,0.32-7.352,0.438-11.025,0.444c-3.672-0.003-7.349-0.124-11.021-0.441c-3.676-0.295-7.351-0.733-11.024-1.568
			l-0.023-0.007c-0.063-0.015-0.101-0.078-0.088-0.139C18.002,59.231,18.049,59.195,18.102,59.195z"/>
	</g>
	<g>
		<path fill="#FFFBFF" d="M22.211,63.432c0.381,0.148,0.757,0.309,1.141,0.447c0.374,0.149,0.749,0.295,1.123,0.422
			c0.755,0.266,1.494,0.532,2.235,0.771c1.483,0.485,2.956,0.912,4.427,1.258c2.937,0.697,5.86,1.077,8.777,1.092
			c2.92,0.018,5.828-0.352,8.75-1.076c2.931-0.697,5.84-1.777,8.949-2.916l0.031-0.011c0.066-0.03,0.138,0.008,0.158,0.07
			c0.023,0.054,0.004,0.114-0.037,0.146c-1.285,0.962-2.622,1.856-4.021,2.645c-1.405,0.78-2.865,1.454-4.377,2.008
			C46.35,69.4,43.127,70,39.907,70c-3.229-0.02-6.44-0.632-9.463-1.725c-3.027-1.092-5.901-2.617-8.402-4.655
			c-0.051-0.04-0.059-0.12-0.018-0.177c0.035-0.044,0.093-0.056,0.146-0.038L22.211,63.432z"/>
	</g>
	<g>
		<path fill="#FFFBFF" d="M22.151,46.467h-3.739c0-22.375,12.271-26.868,12.794-27.047l1.216,3.536l-0.609-1.766l0.625,1.763
			C32.019,23.103,22.151,26.938,22.151,46.467z"/>
	</g>
	<g>
		<path fill="#FFFBFF" d="M36.387,24.278c0,0,3.234,1.94,3.378,2.301c0.142,0.358,0.381-1.798,0.381-1.798l0.335,1.836
			c0,0,2.228,2.618,2.228,3.124c0,0.501,0.5-1.869,0.5-1.869s0.432,5.246,2.013,6.613c0,0,3.381-6.902-2.879-13.661
			c0,0,1.371-0.356,4.388,0.935l0.428-0.981l0.357,1.271c0,0,2.876,1.94,3.377,2.73c0,0-4.156-9.969-7.788-10.614
			c0,0,0.959-1.438,8.819,2.78c0,0-9.13-10.928-18.789-5.369c0,0-8.914-2.904-15.398,8.952c0,0,2.528-4.23,8.497-3.151
			c0,0-2.803,0.073-5.968,4.458c-1.319,1.824-1.362,7.98-1.362,7.98s1.819-3.164,3.21-3.667v-1.293l0.67,0.792
			C22.801,25.644,28.192,20.325,36.387,24.278z"/>
	</g>
	<g>
		<circle fill="#FFFBFF" cx="34.115" cy="23.49" r="2.3"/>
	</g>
</g>
</svg>
