<?xml version="1.0" encoding="utf-8"?>
<!-- Generator: Adobe Illustrator 15.0.2, SVG Export Plug-In . SVG Version: 6.00 Build 0)  -->
<!DOCTYPE svg PUBLIC "-//W3C//DTD SVG 1.1//EN" "http://www.w3.org/Graphics/SVG/1.1/DTD/svg11.dtd">
<svg version="1.1" id="Calque_1" xmlns="http://www.w3.org/2000/svg" xmlns:xlink="http://www.w3.org/1999/xlink" x="0px" y="0px"
	 width="141.72px" height="142.115px" viewBox="-0.552 0 141.72 142.115" enable-background="new -0.552 0 141.72 142.115"
	 xml:space="preserve">
<g>
	<g>
		<linearGradient id="SVGID_1_" gradientUnits="userSpaceOnUse" x1="70.3076" y1="169.2266" x2="70.3076" y2="-27.1113">
			<stop  offset="0" style="stop-color:#614161"/>
			<stop  offset="1" style="stop-color:#542954"/>
		</linearGradient>
		<rect x="-27.589" y="-27.112" fill="url(#SVGID_1_)" width="195.793" height="196.338"/>
	</g>
</g>
<g>
	<g opacity="0.1">
		<g>
			<polygon fill="#542954" points="-390.528,-182.261 -394.064,-185.796 -767.564,187.705 -1141.064,561.2 -1137.528,564.737 
				-764.028,191.24 			"/>
			<polygon fill="#542954" points="-397.6,-189.331 -401.134,-192.866 -774.634,180.635 -1148.134,554.136 -1144.6,557.671 
				-771.1,184.17 			"/>
			<polygon fill="#542954" points="-383.458,-175.19 -386.993,-178.726 -760.493,194.774 -1133.993,568.274 -1130.458,571.812 
				-756.958,198.312 			"/>
			<polygon fill="#542954" points="-369.318,-161.05 -372.854,-164.585 -746.354,208.916 -1119.854,582.417 -1116.318,585.946 
				-742.818,212.451 			"/>
			<polygon fill="#542954" points="-376.388,-168.12 -379.923,-171.655 -753.423,201.847 -1126.923,575.347 -1123.388,578.882 
				-749.888,205.381 			"/>
			<polygon fill="#542954" points="-365.782,-157.515 -739.282,215.985 -1112.782,589.485 -1109.247,593.021 -735.748,219.521 
				-362.248,-153.979 			"/>
		</g>
		<g>
			<polygon fill="#542954" points="-475.528,-182.261 -479.064,-185.796 -852.564,187.705 -1226.064,561.2 -1222.528,564.737 
				-849.028,191.24 			"/>
			<polygon fill="#542954" points="-482.599,-189.331 -486.134,-192.866 -859.634,180.635 -1233.134,554.136 -1229.6,557.671 
				-856.1,184.17 			"/>
			<polygon fill="#542954" points="-468.458,-175.19 -471.993,-178.726 -845.493,194.774 -1218.993,568.274 -1215.458,571.812 
				-841.958,198.312 			"/>
			<polygon fill="#542954" points="-454.318,-161.05 -457.854,-164.585 -831.354,208.916 -1204.854,582.417 -1201.318,585.946 
				-827.818,212.451 			"/>
			<polygon fill="#542954" points="-461.388,-168.12 -464.923,-171.655 -838.423,201.847 -1211.923,575.347 -1208.388,578.882 
				-834.888,205.381 			"/>
			<polygon fill="#542954" points="-450.782,-157.515 -824.282,215.985 -1197.782,589.485 -1194.248,593.021 -820.748,219.521 
				-447.248,-153.979 			"/>
		</g>
	</g>
	<g opacity="0.1">
		<g>
			<polygon fill="#542954" points="-225.528,-177.261 -229.063,-180.796 -602.564,192.705 -976.064,566.2 -972.528,569.737 
				-599.028,196.24 			"/>
			<polygon fill="#542954" points="-232.599,-184.331 -236.134,-187.866 -609.634,185.635 -983.134,559.136 -979.6,562.671 
				-606.1,189.17 			"/>
			<polygon fill="#542954" points="-218.458,-170.19 -221.993,-173.726 -595.493,199.774 -968.993,573.274 -965.458,576.812 
				-591.958,203.312 			"/>
			<polygon fill="#542954" points="-204.318,-156.05 -207.853,-159.585 -581.354,213.916 -954.854,587.417 -951.318,590.946 
				-577.818,217.451 			"/>
			<polygon fill="#542954" points="-211.388,-163.12 -214.922,-166.655 -588.423,206.847 -961.923,580.347 -958.388,583.882 
				-584.888,210.381 			"/>
			<polygon fill="#542954" points="-200.783,-152.515 -574.282,220.985 -947.782,594.485 -944.247,598.021 -570.748,224.521 
				-197.248,-148.979 			"/>
		</g>
		<g>
			<polygon fill="#542954" points="-310.528,-177.261 -314.064,-180.796 -687.564,192.705 -1061.064,566.2 -1057.528,569.737 
				-684.028,196.24 			"/>
			<polygon fill="#542954" points="-317.6,-184.331 -321.134,-187.866 -694.634,185.635 -1068.134,559.136 -1064.6,562.671 
				-691.1,189.17 			"/>
			<polygon fill="#542954" points="-303.458,-170.19 -306.993,-173.726 -680.493,199.774 -1053.993,573.274 -1050.458,576.812 
				-676.958,203.312 			"/>
			<polygon fill="#542954" points="-289.318,-156.05 -292.854,-159.585 -666.354,213.916 -1039.854,587.417 -1036.318,590.946 
				-662.818,217.451 			"/>
			<polygon fill="#542954" points="-296.388,-163.12 -299.923,-166.655 -673.423,206.847 -1046.923,580.347 -1043.388,583.882 
				-669.888,210.381 			"/>
			<polygon fill="#542954" points="-285.782,-152.515 -659.282,220.985 -1032.782,594.485 -1029.247,598.021 -655.748,224.521 
				-282.248,-148.979 			"/>
		</g>
	</g>
	<g opacity="0.1">
		<g>
			<polygon fill="#542954" points="-50.529,-182.261 -54.064,-185.796 -427.564,187.705 -801.064,561.2 -797.528,564.737 
				-424.028,191.24 			"/>
			<polygon fill="#542954" points="-57.599,-189.331 -61.134,-192.866 -434.634,180.635 -808.134,554.136 -804.6,557.671 
				-431.099,184.17 			"/>
			<polygon fill="#542954" points="-43.458,-175.19 -46.994,-178.726 -420.493,194.774 -793.993,568.274 -790.458,571.812 
				-416.958,198.312 			"/>
			<polygon fill="#542954" points="-29.318,-161.05 -32.853,-164.585 -406.354,208.916 -779.854,582.417 -776.318,585.946 
				-402.818,212.451 			"/>
			<polygon fill="#542954" points="-36.388,-168.12 -39.921,-171.655 -413.423,201.847 -786.923,575.347 -783.388,578.882 
				-409.888,205.381 			"/>
			<polygon fill="#542954" points="-25.783,-157.515 -399.282,215.985 -772.782,589.485 -769.248,593.021 -395.748,219.521 
				-22.248,-153.979 			"/>
		</g>
		<g>
			<polygon fill="#542954" points="-135.529,-182.261 -139.064,-185.796 -512.564,187.705 -886.064,561.2 -882.528,564.737 
				-509.028,191.24 			"/>
			<polygon fill="#542954" points="-142.599,-189.331 -146.134,-192.866 -519.634,180.635 -893.134,554.136 -889.6,557.671 
				-516.099,184.17 			"/>
			<polygon fill="#542954" points="-128.458,-175.19 -131.994,-178.726 -505.493,194.774 -878.993,568.274 -875.458,571.812 
				-501.958,198.312 			"/>
			<polygon fill="#542954" points="-114.318,-161.05 -117.853,-164.585 -491.354,208.916 -864.854,582.417 -861.318,585.946 
				-487.818,212.451 			"/>
			<polygon fill="#542954" points="-121.388,-168.12 -124.921,-171.655 -498.423,201.847 -871.923,575.347 -868.388,578.882 
				-494.888,205.381 			"/>
			<polygon fill="#542954" points="-110.783,-157.515 -484.282,215.985 -857.782,589.485 -854.247,593.021 -480.748,219.521 
				-107.248,-153.979 			"/>
		</g>
	</g>
	<g opacity="0.1">
		<g>
			<polygon fill="#542954" points="114.472,-177.261 110.937,-180.796 -262.564,192.705 -636.064,566.2 -632.528,569.737 
				-259.028,196.24 			"/>
			<polygon fill="#542954" points="107.401,-184.331 103.866,-187.866 -269.634,185.635 -643.134,559.136 -639.6,562.671 
				-266.1,189.17 			"/>
			<polygon fill="#542954" points="121.542,-170.19 118.006,-173.726 -255.493,199.774 -628.993,573.274 -625.458,576.812 
				-251.958,203.312 			"/>
			<polygon fill="#542954" points="135.683,-156.05 132.147,-159.585 -241.353,213.916 -614.854,587.417 -611.318,590.946 
				-237.817,217.451 			"/>
			<polygon fill="#542954" points="128.612,-163.12 125.079,-166.655 -248.422,206.847 -621.923,580.347 -618.388,583.882 
				-244.887,210.381 			"/>
			<polygon fill="#542954" points="139.217,-152.515 -234.282,220.985 -607.782,594.485 -604.248,598.021 -230.747,224.521 
				142.752,-148.979 			"/>
		</g>
		<g>
			<polygon fill="#542954" points="29.471,-177.261 25.936,-180.796 -347.564,192.705 -721.064,566.2 -717.528,569.737 
				-344.028,196.24 			"/>
			<polygon fill="#542954" points="22.401,-184.331 18.866,-187.866 -354.634,185.635 -728.134,559.136 -724.6,562.671 
				-351.1,189.17 			"/>
			<polygon fill="#542954" points="36.542,-170.19 33.006,-173.726 -340.493,199.774 -713.993,573.274 -710.458,576.812 
				-336.958,203.312 			"/>
			<polygon fill="#542954" points="50.682,-156.05 47.147,-159.585 -326.354,213.916 -699.854,587.417 -696.318,590.946 
				-322.818,217.451 			"/>
			<polygon fill="#542954" points="43.612,-163.12 40.079,-166.655 -333.423,206.847 -706.923,580.347 -703.388,583.882 
				-329.888,210.381 			"/>
			<polygon fill="#542954" points="54.217,-152.515 -319.282,220.985 -692.782,594.485 -689.248,598.021 -315.748,224.521 
				57.752,-148.979 			"/>
		</g>
	</g>
	<g opacity="0.1">
		<g>
			<polygon fill="#542954" points="288.472,-182.261 284.937,-185.796 -88.564,187.705 -462.064,561.2 -458.528,564.737 
				-85.029,191.24 			"/>
			<polygon fill="#542954" points="281.401,-189.331 277.866,-192.866 -95.634,180.635 -469.134,554.136 -465.599,557.671 
				-92.099,184.17 			"/>
			<polygon fill="#542954" points="295.542,-175.19 292.006,-178.726 -81.494,194.774 -454.993,568.274 -451.458,571.812 
				-77.958,198.312 			"/>
			<polygon fill="#542954" points="309.683,-161.05 306.147,-164.585 -67.353,208.916 -440.854,582.417 -437.318,585.946 
				-63.818,212.451 			"/>
			<polygon fill="#542954" points="302.612,-168.12 299.079,-171.655 -74.421,201.847 -447.923,575.347 -444.388,578.882 
				-70.888,205.381 			"/>
			<polygon fill="#542954" points="313.217,-157.515 -60.283,215.985 -433.782,589.485 -430.248,593.021 -56.748,219.521 
				316.752,-153.979 			"/>
		</g>
		<g>
			<polygon fill="#542954" points="203.472,-182.261 199.937,-185.796 -173.564,187.705 -547.064,561.2 -543.528,564.737 
				-170.029,191.24 			"/>
			<polygon fill="#542954" points="196.401,-189.331 192.866,-192.866 -180.634,180.635 -554.134,554.136 -550.599,557.671 
				-177.099,184.17 			"/>
			<polygon fill="#542954" points="210.542,-175.19 207.006,-178.726 -166.494,194.774 -539.993,568.274 -536.458,571.812 
				-162.958,198.312 			"/>
			<polygon fill="#542954" points="224.683,-161.05 221.147,-164.585 -152.353,208.916 -525.854,582.417 -522.318,585.946 
				-148.818,212.451 			"/>
			<polygon fill="#542954" points="217.612,-168.12 214.079,-171.655 -159.421,201.847 -532.923,575.347 -529.388,578.882 
				-155.888,205.381 			"/>
			<polygon fill="#542954" points="228.217,-157.515 -145.283,215.985 -518.782,589.485 -515.248,593.021 -141.748,219.521 
				231.752,-153.979 			"/>
		</g>
	</g>
	<g opacity="0.1">
		<g>
			<polygon fill="#542954" points="453.471,-177.261 449.936,-180.796 76.437,192.705 -297.064,566.2 -293.528,569.737 
				79.972,196.24 			"/>
			<polygon fill="#542954" points="446.401,-184.331 442.868,-187.866 69.366,185.635 -304.134,559.136 -300.6,562.671 
				72.901,189.17 			"/>
			<polygon fill="#542954" points="460.542,-170.19 457.006,-173.726 83.506,199.774 -289.993,573.274 -286.458,576.812 
				87.042,203.312 			"/>
			<polygon fill="#542954" points="474.682,-156.05 471.146,-159.585 97.647,213.916 -275.854,587.417 -272.318,590.946 
				101.183,217.451 			"/>
			<polygon fill="#542954" points="467.612,-163.12 464.079,-166.655 90.579,206.847 -282.923,580.347 -279.388,583.882 
				94.112,210.381 			"/>
			<polygon fill="#542954" points="478.217,-152.515 104.717,220.985 -268.782,594.485 -265.248,598.021 108.252,224.521 
				481.752,-148.979 			"/>
		</g>
		<g>
			<polygon fill="#542954" points="368.472,-177.261 364.937,-180.796 -8.564,192.705 -382.064,566.2 -378.528,569.737 
				-5.029,196.24 			"/>
			<polygon fill="#542954" points="361.401,-184.331 357.866,-187.866 -15.634,185.635 -389.134,559.136 -385.6,562.671 
				-12.099,189.17 			"/>
			<polygon fill="#542954" points="375.542,-170.19 372.006,-173.726 -1.494,199.774 -374.993,573.274 -371.458,576.812 
				2.042,203.312 			"/>
			<polygon fill="#542954" points="389.683,-156.05 386.147,-159.585 12.647,213.916 -360.854,587.417 -357.318,590.946 
				16.182,217.451 			"/>
			<polygon fill="#542954" points="382.612,-163.12 379.079,-166.655 5.579,206.847 -367.923,580.347 -364.388,583.882 
				9.112,210.381 			"/>
			<polygon fill="#542954" points="393.217,-152.515 19.717,220.985 -353.782,594.485 -350.248,598.021 23.252,224.521 
				396.752,-148.979 			"/>
		</g>
	</g>
	<g opacity="0.1">
		<g>
			<polygon fill="#542954" points="628.472,-182.261 624.937,-185.796 251.437,187.705 -122.064,561.2 -118.529,564.737 
				254.972,191.24 			"/>
			<polygon fill="#542954" points="621.401,-189.331 617.868,-192.866 244.366,180.635 -129.134,554.136 -125.599,557.671 
				247.901,184.17 			"/>
			<polygon fill="#542954" points="635.542,-175.19 632.007,-178.726 258.506,194.774 -114.994,568.274 -111.458,571.812 
				262.042,198.312 			"/>
			<polygon fill="#542954" points="649.683,-161.05 646.147,-164.585 272.647,208.916 -100.853,582.417 -97.318,585.946 
				276.183,212.451 			"/>
			<polygon fill="#542954" points="642.612,-168.12 639.079,-171.655 265.579,201.847 -107.921,575.347 -104.388,578.882 
				269.112,205.381 			"/>
			<polygon fill="#542954" points="653.218,-157.515 279.717,215.985 -93.783,589.485 -90.248,593.021 283.252,219.521 
				656.753,-153.979 			"/>
		</g>
		<g>
			<polygon fill="#542954" points="543.472,-182.261 539.937,-185.796 166.437,187.705 -207.063,561.2 -203.529,564.737 
				169.972,191.24 			"/>
			<polygon fill="#542954" points="536.401,-189.331 532.868,-192.866 159.366,180.635 -214.134,554.136 -210.599,557.671 
				162.901,184.17 			"/>
			<polygon fill="#542954" points="550.542,-175.19 547.007,-178.726 173.506,194.774 -199.994,568.274 -196.458,571.812 
				177.042,198.312 			"/>
			<polygon fill="#542954" points="564.683,-161.05 561.147,-164.585 187.647,208.916 -185.853,582.417 -182.318,585.946 
				191.183,212.451 			"/>
			<polygon fill="#542954" points="557.612,-168.12 554.079,-171.655 180.579,201.847 -192.921,575.347 -189.388,578.882 
				184.112,205.381 			"/>
			<polygon fill="#542954" points="568.218,-157.515 194.717,215.985 -178.783,589.485 -175.248,593.021 198.252,219.521 
				571.753,-153.979 			"/>
		</g>
	</g>
	<g opacity="0.1">
		<g>
			<polygon fill="#542954" points="793.472,-177.261 789.937,-180.796 416.437,192.705 42.936,566.2 46.471,569.737 419.972,196.24 
							"/>
			<polygon fill="#542954" points="786.401,-184.331 782.868,-187.866 409.368,185.635 35.866,559.136 39.401,562.671 
				412.901,189.17 			"/>
			<polygon fill="#542954" points="800.542,-170.19 797.007,-173.726 423.506,199.774 50.006,573.274 53.542,576.812 
				427.042,203.312 			"/>
			<polygon fill="#542954" points="814.683,-156.05 811.147,-159.585 437.647,213.916 64.147,587.417 67.683,590.946 
				441.182,217.451 			"/>
			<polygon fill="#542954" points="807.612,-163.12 804.079,-166.655 430.579,206.847 57.079,580.347 60.612,583.882 
				434.112,210.381 			"/>
			<polygon fill="#542954" points="818.218,-152.515 444.717,220.985 71.217,594.485 74.752,598.021 448.252,224.521 
				821.753,-148.979 			"/>
		</g>
		<g>
			<polygon fill="#542954" points="708.472,-177.261 704.937,-180.796 331.437,192.705 -42.064,566.2 -38.529,569.737 
				334.972,196.24 			"/>
			<polygon fill="#542954" points="701.401,-184.331 697.868,-187.866 324.366,185.635 -49.134,559.136 -45.599,562.671 
				327.901,189.17 			"/>
			<polygon fill="#542954" points="715.542,-170.19 712.007,-173.726 338.506,199.774 -34.994,573.274 -31.458,576.812 
				342.042,203.312 			"/>
			<polygon fill="#542954" points="729.683,-156.05 726.147,-159.585 352.647,213.916 -20.853,587.417 -17.318,590.946 
				356.183,217.451 			"/>
			<polygon fill="#542954" points="722.612,-163.12 719.079,-166.655 345.579,206.847 -27.921,580.347 -24.388,583.882 
				349.112,210.381 			"/>
			<polygon fill="#542954" points="733.218,-152.515 359.717,220.985 -13.783,594.485 -10.248,598.021 363.252,224.521 
				736.753,-148.979 			"/>
		</g>
	</g>
</g>
</svg>
